<?xml version="1.0" encoding="UTF-8"?>
<svg xmlns="http://www.w3.org/2000/svg" xmlns:xlink="http://www.w3.org/1999/xlink" width="224.87999pt" height="225pt" viewBox="0 0 224.87999 225" version="1.2">
<defs>
<clipPath id="clip1">
  <path d="M 18 26 L 218 26 L 218 224.9375 L 18 224.9375 Z M 18 26 "/>
</clipPath>
</defs>
<g id="surface1">
<g clip-path="url(#clip1)" clip-rule="nonzero">
<path style=" stroke:none;fill-rule:nonzero;fill:rgb(99.609375%,80.778503%,18.429565%);fill-opacity:1;" d="M 145.925781 49.578125 C 133.808594 30.511719 89.027344 19.011719 71.085938 30.953125 C 53.144531 42.890625 61.429688 69.957031 50.050781 76.976562 C 38.671875 84.007812 12.511719 107.410156 19.363281 135.296875 C 29.019531 174.644531 18.890625 192.832031 33.5 205.820312 C 54.535156 224.527344 77.984375 209.167969 106.613281 217.25 C 135.234375 225.332031 178.625 232.089844 196.625 211.882812 C 210.074219 196.78125 204.742188 176.632812 213.523438 156.726562 C 224.210938 132.476562 214.902344 108.589844 187.660156 104.027344 C 160.417969 99.46875 157.304688 67.496094 145.925781 49.578125 Z M 145.925781 49.578125 "/>
</g>
</g>
</svg>
